<?xml version="1.0" encoding="UTF-8" standalone="no"?><!-- Generator: Gravit.io --><svg xmlns="http://www.w3.org/2000/svg" xmlns:xlink="http://www.w3.org/1999/xlink" style="isolation:isolate" viewBox="410.567 180.122 365.165 386.881" width="365.165pt" height="386.881pt"><g><path d=" M 617.008 395.992 C 646.178 395.992 669.549 372.445 669.549 343.275 L 669.725 237.84 C 669.725 208.67 646.178 185.122 617.008 185.122 C 587.837 185.122 564.29 208.67 564.29 237.84 L 564.29 343.275 C 564.29 372.445 587.837 395.992 617.008 395.992 Z  M 595.921 236.083 C 595.921 224.485 605.41 214.996 617.008 214.996 C 628.605 214.996 638.095 224.485 638.095 236.083 L 637.919 345.032 C 637.919 356.63 628.605 366.119 617.008 366.119 C 605.41 366.119 595.921 356.63 595.921 345.032 L 595.921 236.083 Z  M 710.142 343.275 C 710.142 395.992 665.508 432.895 617.008 432.895 C 568.507 432.895 523.873 395.992 523.873 343.275 L 494 343.275 C 494 403.197 541.797 452.752 599.435 461.362 L 599.435 519 L 634.58 519 L 634.58 461.362 C 692.218 452.927 740.015 403.373 740.015 343.275 L 710.142 343.275 Z " fill="rgb(255,255,255)"/><mask id="_mask_lC90MX43iDHEuEittW583dvnuE0reCZa" x="-200%" y="-200%" width="400%" height="400%"><rect x="-200%" y="-200%" width="400%" height="400%" style="fill:white;"/><path d=" M 457.662 185.314 L 415.567 237.341 L 440.14 237.341 L 434.091 270.597 C 434.068 270.729 434.104 270.865 434.19 270.967 C 434.277 271.07 434.404 271.129 434.538 271.129 L 434.538 271.129 C 434.681 271.129 434.816 271.061 434.901 270.946 L 477 218.911 L 452.427 218.911 L 458.505 185.65 C 458.521 185.516 458.479 185.382 458.39 185.281 C 458.3 185.18 458.171 185.122 458.036 185.122 L 458.036 185.122 C 457.888 185.123 457.749 185.194 457.662 185.314 Z " fill="black" stroke="none"/></mask><path d=" M 457.662 185.314 L 415.567 237.341 L 440.14 237.341 L 434.091 270.597 C 434.068 270.729 434.104 270.865 434.19 270.967 C 434.277 271.07 434.404 271.129 434.538 271.129 L 434.538 271.129 C 434.681 271.129 434.816 271.061 434.901 270.946 L 477 218.911 L 452.427 218.911 L 458.505 185.65 C 458.521 185.516 458.479 185.382 458.39 185.281 C 458.3 185.18 458.171 185.122 458.036 185.122 L 458.036 185.122 C 457.888 185.123 457.749 185.194 457.662 185.314 Z " fill="none" mask="url(#_mask_lC90MX43iDHEuEittW583dvnuE0reCZa)" vector-effect="non-scaling-stroke" stroke-width="10" stroke="rgb(255,255,255)" stroke-linejoin="round" stroke-linecap="round" stroke-miterlimit="4"/><path d=" M 457.662 185.314 L 415.567 237.341 L 440.14 237.341 L 434.091 270.597 C 434.068 270.729 434.104 270.865 434.19 270.967 C 434.277 271.07 434.404 271.129 434.538 271.129 L 434.538 271.129 C 434.681 271.129 434.816 271.061 434.901 270.946 L 477 218.911 L 452.427 218.911 L 458.505 185.65 C 458.521 185.516 458.479 185.382 458.39 185.281 C 458.3 185.18 458.171 185.122 458.036 185.122 L 458.036 185.122 C 457.888 185.123 457.749 185.194 457.662 185.314 Z " fill="none"/><mask id="_mask_WHIS9G9pGu7Wr77ARpFo1NL39ENgBEXs" x="-200%" y="-200%" width="400%" height="400%"><rect x="-200%" y="-200%" width="400%" height="400%" style="fill:white;"/><path d=" M 751.394 476.189 L 709.299 528.215 L 733.872 528.215 L 727.823 561.471 C 727.799 561.604 727.836 561.739 727.922 561.842 C 728.008 561.944 728.136 562.004 728.27 562.003 L 728.27 562.003 C 728.413 562.003 728.547 561.935 728.633 561.821 L 770.732 509.785 L 746.158 509.785 L 752.236 476.525 C 752.253 476.391 752.211 476.256 752.121 476.155 C 752.032 476.054 751.903 475.996 751.768 475.997 L 751.768 475.997 C 751.62 475.997 751.481 476.069 751.394 476.189 Z " fill="black" stroke="none"/></mask><path d=" M 751.394 476.189 L 709.299 528.215 L 733.872 528.215 L 727.823 561.471 C 727.799 561.604 727.836 561.739 727.922 561.842 C 728.008 561.944 728.136 562.004 728.27 562.003 L 728.27 562.003 C 728.413 562.003 728.547 561.935 728.633 561.821 L 770.732 509.785 L 746.158 509.785 L 752.236 476.525 C 752.253 476.391 752.211 476.256 752.121 476.155 C 752.032 476.054 751.903 475.996 751.768 475.997 L 751.768 475.997 C 751.62 475.997 751.481 476.069 751.394 476.189 Z " fill="none" mask="url(#_mask_WHIS9G9pGu7Wr77ARpFo1NL39ENgBEXs)" vector-effect="non-scaling-stroke" stroke-width="10" stroke="rgb(255,255,255)" stroke-linejoin="round" stroke-linecap="round" stroke-miterlimit="4"/><path d=" M 751.394 476.189 L 709.299 528.215 L 733.872 528.215 L 727.823 561.471 C 727.799 561.604 727.836 561.739 727.922 561.842 C 728.008 561.944 728.136 562.004 728.27 562.003 L 728.27 562.003 C 728.413 562.003 728.547 561.935 728.633 561.821 L 770.732 509.785 L 746.158 509.785 L 752.236 476.525 C 752.253 476.391 752.211 476.256 752.121 476.155 C 752.032 476.054 751.903 475.996 751.768 475.997 L 751.768 475.997 C 751.62 475.997 751.481 476.069 751.394 476.189 Z " fill="none"/></g></svg>