<?xml version="1.0" encoding="UTF-8" standalone="no"?><!-- Generator: Gravit.io --><svg xmlns="http://www.w3.org/2000/svg" xmlns:xlink="http://www.w3.org/1999/xlink" style="isolation:isolate" viewBox="1115.179 753.888 23.643 31.5" width="23.643pt" height="31.5pt"><mask id="_mask_Ac58XZPJygLc3LEjlYDWCjxqXaAWPXzQ" x="-200%" y="-200%" width="400%" height="400%"><rect x="-200%" y="-200%" width="400%" height="400%" style="fill:white;"/><path d=" M 1130.638 755.949 L 1117.179 772.585 L 1125.036 772.585 L 1123.102 783.218 C 1123.094 783.26 1123.106 783.304 1123.134 783.336 C 1123.161 783.369 1123.202 783.388 1123.245 783.388 L 1123.245 783.388 C 1123.29 783.388 1123.333 783.366 1123.361 783.33 L 1136.822 766.692 L 1128.965 766.692 L 1130.908 756.057 C 1130.913 756.014 1130.9 755.971 1130.871 755.939 C 1130.842 755.906 1130.801 755.888 1130.758 755.888 L 1130.758 755.888 C 1130.711 755.888 1130.666 755.911 1130.638 755.949 Z " fill="black" stroke="none"/></mask><path d=" M 1130.638 755.949 L 1117.179 772.585 L 1125.036 772.585 L 1123.102 783.218 C 1123.094 783.26 1123.106 783.304 1123.134 783.336 C 1123.161 783.369 1123.202 783.388 1123.245 783.388 L 1123.245 783.388 C 1123.29 783.388 1123.333 783.366 1123.361 783.33 L 1136.822 766.692 L 1128.965 766.692 L 1130.908 756.057 C 1130.913 756.014 1130.9 755.971 1130.871 755.939 C 1130.842 755.906 1130.801 755.888 1130.758 755.888 L 1130.758 755.888 C 1130.711 755.888 1130.666 755.911 1130.638 755.949 Z " fill="none" mask="url(#_mask_Ac58XZPJygLc3LEjlYDWCjxqXaAWPXzQ)" vector-effect="non-scaling-stroke" stroke-width="4" stroke="rgb(255,255,255)" stroke-linejoin="round" stroke-linecap="round" stroke-miterlimit="4"/><path d=" M 1130.638 755.949 L 1117.179 772.585 L 1125.036 772.585 L 1123.102 783.218 C 1123.094 783.26 1123.106 783.304 1123.134 783.336 C 1123.161 783.369 1123.202 783.388 1123.245 783.388 L 1123.245 783.388 C 1123.29 783.388 1123.333 783.366 1123.361 783.33 L 1136.822 766.692 L 1128.965 766.692 L 1130.908 756.057 C 1130.913 756.014 1130.9 755.971 1130.871 755.939 C 1130.842 755.906 1130.801 755.888 1130.758 755.888 L 1130.758 755.888 C 1130.711 755.888 1130.666 755.911 1130.638 755.949 Z " fill="none"/></svg>