<?xml version="1.0" encoding="UTF-8" standalone="no"?><!-- Generator: Gravit.io --><svg xmlns="http://www.w3.org/2000/svg" xmlns:xlink="http://www.w3.org/1999/xlink" style="isolation:isolate" viewBox="36.837 614.2 51.326 65.324" width="51.326pt" height="65.324pt"><g><path d=" M 79.998 632.864 L 64.833 632.864 L 64.833 655.227 L 72.516 647.546 C 73.433 646.675 74.878 646.693 75.772 647.588 C 76.667 648.482 76.686 649.927 75.814 650.844 L 64.149 662.509 C 63.238 663.42 61.762 663.42 60.851 662.509 L 49.186 650.844 C 48.314 649.927 48.333 648.482 49.228 647.588 C 50.122 646.693 51.567 646.675 52.484 647.546 L 60.167 655.227 L 60.167 632.864 L 45.002 632.864 C 40.495 632.869 36.842 636.522 36.837 641.03 L 36.837 671.359 C 36.842 675.866 40.495 679.519 45.002 679.524 L 79.998 679.524 C 84.505 679.519 88.158 675.866 88.163 671.359 L 88.163 641.03 C 88.158 636.522 84.505 632.869 79.998 632.864 L 79.998 632.864 Z " fill="rgb(255,255,255)"/><path d=" M 64.833 616.533 C 64.833 615.245 63.788 614.2 62.5 614.2 C 61.212 614.2 60.167 615.245 60.167 616.533 L 60.167 632.864 L 64.833 632.864 L 64.833 616.533 Z " fill="rgb(255,255,255)"/></g></svg>